<svg width="87" height="87" viewBox="0 0 87 87" fill="none" xmlns="http://www.w3.org/2000/svg">
<rect x="1.5" y="1.5" width="84" height="84" rx="15.5" fill="#8338EC" stroke="white" stroke-width="3"/>
<path fill-rule="evenodd" clip-rule="evenodd" d="M26.5897 44.5385C26.4537 44.5385 26.3233 44.5925 26.2271 44.6887C26.131 44.7848 26.0769 44.9153 26.0769 45.0513V51.2051C26.0769 52.9732 26.7793 54.6689 28.0295 55.9192C29.2798 57.1694 30.9755 57.8718 32.7436 57.8718H53.2564C55.0245 57.8718 56.7202 57.1694 57.9704 55.9192C59.2207 54.6689 59.9231 52.9732 59.9231 51.2051V45.0513C59.9231 44.9153 59.869 44.7848 59.7729 44.6887C59.6767 44.5925 59.5462 44.5385 59.4102 44.5385H26.5897ZM26.5897 41.4615H59.4102C60.3623 41.4615 61.2754 41.8398 61.9486 42.513C62.6218 43.1862 63 44.0992 63 45.0513V51.2051C63 53.7893 61.9734 56.2676 60.1461 58.0949C58.3189 59.9222 55.8406 60.9487 53.2564 60.9487H32.7436C30.1594 60.9487 27.6811 59.9222 25.8538 58.0949C24.0266 56.2676 23 53.7893 23 51.2051V45.0513C23 44.0992 23.3782 43.1862 24.0514 42.513C24.7246 41.8398 25.6377 41.4615 26.5897 41.4615Z" fill="white"/>
<path fill-rule="evenodd" clip-rule="evenodd" d="M34.7949 26.0769C34.1149 26.0769 33.4627 26.3471 32.9818 26.8279C32.5009 27.3088 32.2308 27.961 32.2308 28.641V43C32.2308 43.8497 31.542 44.5385 30.6923 44.5385C29.8427 44.5385 29.1539 43.8497 29.1539 43V28.641C29.1539 27.1449 29.7482 25.7101 30.8061 24.6522C31.864 23.5943 33.2988 23 34.7949 23H40.9487C41.7984 23 42.4872 23.6888 42.4872 24.5385V29.1538C42.4872 30.0035 41.7984 30.6923 40.9487 30.6923C40.0991 30.6923 39.4103 30.0035 39.4103 29.1538V26.0769H34.7949Z" fill="white"/>
<path fill-rule="evenodd" clip-rule="evenodd" d="M29.4944 57.1046C30.2013 57.5759 30.3924 58.5311 29.9211 59.238L27.8698 62.3149C27.3985 63.0219 26.4433 63.2129 25.7363 62.7416C25.0294 62.2703 24.8383 61.3151 25.3096 60.6082L27.3609 57.5312C27.8322 56.8243 28.7874 56.6332 29.4944 57.1046Z" fill="white"/>
<path fill-rule="evenodd" clip-rule="evenodd" d="M56.5055 57.1046C57.2125 56.6332 58.1676 56.8243 58.639 57.5312L60.6902 60.6082C61.1615 61.3151 60.9705 62.2703 60.2635 62.7416C59.5566 63.2129 58.6014 63.0219 58.1301 62.3149L56.0788 59.238C55.6075 58.5311 55.7985 57.5759 56.5055 57.1046Z" fill="white"/>
</svg>
