<svg width="87" height="87" viewBox="0 0 87 87" fill="none" xmlns="http://www.w3.org/2000/svg">
<rect x="1.5" y="1.5" width="84" height="84" rx="15.5" fill="#8338EC" stroke="white" stroke-width="3"/>
<path fill-rule="evenodd" clip-rule="evenodd" d="M54.7935 29.3036C54.3425 29.2595 53.8875 29.3267 53.4688 29.4994C53.0501 29.672 52.6807 29.9448 52.3933 30.2934C52.1058 30.642 51.9092 31.0558 51.8209 31.498C51.7326 31.9403 51.7552 32.3974 51.8868 32.8289C52.0185 33.2604 52.255 33.6529 52.5755 33.9717C52.8858 34.2802 53.06 34.6987 53.0601 35.1351C53.0601 35.5716 52.8858 35.9901 52.5756 36.2987L40.2596 48.5501C39.6137 49.1925 38.5667 49.1924 37.921 48.5499C37.2753 47.9073 37.2754 46.8656 37.9212 46.2232L49.2302 34.9735C49.0194 34.5978 48.8488 34.1994 48.7222 33.7846C48.4326 32.8353 48.3828 31.8297 48.5771 30.8567C48.7714 29.8837 49.204 28.9734 49.8363 28.2065C50.4687 27.4395 51.2814 26.8395 52.2025 26.4597C53.1236 26.0799 54.1246 25.9319 55.1169 26.0289C56.1092 26.1259 57.0621 26.4649 57.8913 27.0158C58.7205 27.5667 59.4003 28.3126 59.8705 29.1874C60.1058 29.6249 60.2849 30.0879 60.4053 30.5656C60.8858 30.6849 61.3515 30.8628 61.7917 31.0966C62.6716 31.5638 63.422 32.2397 63.9765 33.0645C64.531 33.8893 64.8724 34.8374 64.9706 35.8248C65.0687 36.8123 64.9205 37.8086 64.5391 38.7254C64.1577 39.6423 63.5549 40.4514 62.7841 41.081C62.0132 41.7106 61.0982 42.1413 60.1201 42.335C59.1419 42.5286 58.1309 42.4792 57.1765 42.1911C56.7592 42.0652 56.3584 41.8953 55.9805 41.6853L49.0787 48.5501C48.4329 49.1925 47.3859 49.1924 46.7402 48.5498C46.0945 47.9072 46.0947 46.8655 46.7405 46.2231L54.6492 38.3568C54.9593 38.0483 55.3799 37.875 55.8185 37.875C56.2571 37.8751 56.6776 38.0485 56.9877 38.3571C57.3082 38.6761 57.7029 38.9115 58.1367 39.0424C58.5705 39.1733 59.03 39.1958 59.4746 39.1078C59.9193 39.0198 60.3352 38.824 60.6856 38.5378C61.0359 38.2516 61.31 37.8838 61.4833 37.4671C61.6567 37.0503 61.724 36.5975 61.6794 36.1486C61.6348 35.6998 61.4796 35.2688 61.2276 34.8939C60.9755 34.5191 60.6344 34.2118 60.2345 33.9994C59.8346 33.7871 59.3882 33.6761 58.9348 33.6764C58.4961 33.6767 58.0753 33.5036 57.765 33.1951C57.4546 32.8867 57.2802 32.4682 57.28 32.0317C57.2799 31.5808 57.168 31.1369 56.9543 30.7392C56.7405 30.3416 56.4315 30.0026 56.0546 29.7522C55.6777 29.5018 55.2446 29.3477 54.7935 29.3036Z" fill="white"/>
<path fill-rule="evenodd" clip-rule="evenodd" d="M31.8831 26.0289C32.8754 25.9319 33.8764 26.0799 34.7975 26.4597C35.7186 26.8395 36.5313 27.4395 37.1637 28.2065C37.7961 28.9734 38.2286 29.8837 38.4229 30.8567C38.6172 31.8297 38.5674 32.8353 38.2778 33.7846C38.1513 34.1994 37.9807 34.5978 37.7698 34.9735L44.6691 41.8358C45.315 42.4783 45.3151 43.5199 44.6694 44.1625C44.0238 44.8051 42.9768 44.8053 42.3309 44.1629L34.4245 36.2987C34.1142 35.9902 33.94 35.5716 33.94 35.1352C33.94 34.6988 34.1143 34.2802 34.4245 33.9717C34.745 33.6529 34.9815 33.2604 35.1132 32.8289C35.2448 32.3974 35.2675 31.9403 35.1791 31.498C35.0908 31.0558 34.8942 30.642 34.6067 30.2934C34.3193 29.9448 33.9499 29.672 33.5312 29.4994C33.1125 29.3267 32.6575 29.2595 32.2065 29.3036C31.7554 29.3477 31.3223 29.5018 30.9454 29.7522C30.5685 30.0026 30.2595 30.3416 30.0457 30.7392C29.832 31.1369 29.7201 31.5808 29.72 32.0317C29.7198 32.4682 29.5454 32.8867 29.2351 33.1951C28.9247 33.5036 28.5039 33.6767 28.0652 33.6764C27.6119 33.6761 27.1654 33.7871 26.7655 33.9994C26.3656 34.2118 26.0245 34.5191 25.7724 34.8939C25.5204 35.2688 25.3652 35.6998 25.3206 36.1486C25.276 36.5975 25.3433 37.0503 25.5167 37.4671C25.6901 37.8838 25.9641 38.2516 26.3145 38.5378C26.6648 38.824 27.0808 39.0198 27.5254 39.1078C27.97 39.1958 28.4296 39.1733 28.8634 39.0424C29.2972 38.9115 29.6918 38.6761 30.0123 38.3571C30.3224 38.0485 30.7429 37.8751 31.1815 37.875C31.6201 37.875 32.0407 38.0483 32.3509 38.3568L40.2595 46.2231C40.9054 46.8655 40.9055 47.9072 40.2598 48.5498C39.6141 49.1924 38.5671 49.1925 37.9213 48.5501L31.0195 41.6853C30.6416 41.8953 30.2408 42.0652 29.8235 42.1911C28.8692 42.4792 27.8581 42.5286 26.88 42.335C25.9018 42.1413 24.9868 41.7106 24.2159 41.081C23.4451 40.4514 22.8423 39.6423 22.4609 38.7254C22.0795 37.8086 21.9313 36.8123 22.0294 35.8248C22.1276 34.8374 22.469 33.8893 23.0235 33.0645C23.578 32.2397 24.3284 31.5638 25.2083 31.0966C25.6485 30.8628 26.1143 30.6849 26.5947 30.5656C26.7151 30.0879 26.8943 29.6249 27.1295 29.1874C27.5997 28.3126 28.2795 27.5667 29.1087 27.0158C29.9379 26.4649 30.8908 26.1259 31.8831 26.0289Z" fill="white"/>
<path fill-rule="evenodd" clip-rule="evenodd" d="M27.0741 46.0706C27.3604 45.8569 27.7086 45.7414 28.0664 45.7414H58.9337C59.3251 45.7414 59.7038 45.8795 60.0024 46.1312C62.413 48.1625 63.5984 50.2726 64.2016 52.4134C64.6333 53.9454 64.7634 55.5422 64.8775 56.9417C64.913 57.3774 64.9469 57.7939 64.9879 58.1834C65.0367 58.647 64.8856 59.1095 64.572 59.4558C64.2584 59.8022 63.8119 60 63.3433 60H23.6568C22.7435 60 22.0032 59.2634 22.0032 58.3548C22.0032 52.9396 23.5688 48.6868 27.0741 46.0706ZM28.6468 49.0318C26.7953 50.6144 25.6324 53.0867 25.3681 56.7095H61.5366C61.4362 55.4997 61.3335 54.4244 61.0172 53.3016C60.624 51.9061 59.8947 50.4922 58.3079 49.0318H28.6468Z" fill="white"/>
</svg>
