<svg width="87" height="87" viewBox="0 0 87 87" fill="none" xmlns="http://www.w3.org/2000/svg">
<rect x="1.5" y="1.5" width="84" height="84" rx="15.5" fill="#8338EC" stroke="white" stroke-width="3"/>
<path fill-rule="evenodd" clip-rule="evenodd" d="M28.0569 29.2727C27.367 29.2727 26.7052 29.5434 26.2173 30.0252C25.7294 30.507 25.4553 31.1605 25.4553 31.8418V56.5052C25.4553 57.1866 25.7294 57.8401 26.2173 58.3219C26.7052 58.8037 27.367 59.0743 28.0569 59.0743H42.1994C43.0615 59.0743 43.7603 59.7645 43.7603 60.6158C43.7603 61.4671 43.0615 62.1573 42.1994 62.1573H28.0569C26.539 62.1573 25.0831 61.5618 24.0098 60.5018C22.9364 59.4419 22.3334 58.0042 22.3334 56.5052V31.8418C22.3334 30.3428 22.9364 28.9052 24.0098 27.8453C25.0831 26.7853 26.539 26.1898 28.0569 26.1898H53.0325C54.5505 26.1898 56.0063 26.7853 57.0797 27.8453C58.1531 28.9052 58.7561 30.3428 58.7561 31.8418V40.063C58.7561 40.9143 58.0572 41.6044 57.1951 41.6044C56.333 41.6044 55.6342 40.9143 55.6342 40.063V31.8418C55.6342 31.1605 55.3601 30.507 54.8722 30.0252C54.3843 29.5434 53.7225 29.2727 53.0325 29.2727H28.0569Z" fill="white"/>
<path fill-rule="evenodd" clip-rule="evenodd" d="M55.1138 47.7703C51.3781 47.7703 48.3496 50.7609 48.3496 54.45C48.3496 58.139 51.3781 61.1296 55.1138 61.1296C58.8496 61.1296 61.8781 58.139 61.8781 54.45C61.8781 50.7609 58.8496 47.7703 55.1138 47.7703ZM45.2277 54.45C45.2277 49.0582 49.6539 44.6874 55.1138 44.6874C60.5738 44.6874 65 49.0582 65 54.45C65 59.8417 60.5738 64.2126 55.1138 64.2126C49.6539 64.2126 45.2277 59.8417 45.2277 54.45Z" fill="white"/>
<path fill-rule="evenodd" clip-rule="evenodd" d="M48.8699 22.0792C49.732 22.0792 50.4309 22.7694 50.4309 23.6207V31.8418C50.4309 32.6931 49.732 33.3833 48.8699 33.3833C48.0078 33.3833 47.309 32.6931 47.309 31.8418V23.6207C47.309 22.7694 48.0078 22.0792 48.8699 22.0792Z" fill="white"/>
<path fill-rule="evenodd" clip-rule="evenodd" d="M32.2195 22.0792C33.0816 22.0792 33.7805 22.7694 33.7805 23.6207V31.8418C33.7805 32.6931 33.0816 33.3833 32.2195 33.3833C31.3574 33.3833 30.6586 32.6931 30.6586 31.8418V23.6207C30.6586 22.7694 31.3574 22.0792 32.2195 22.0792Z" fill="white"/>
<path fill-rule="evenodd" clip-rule="evenodd" d="M22.3334 40.0629C22.3334 39.2116 23.0322 38.5215 23.8943 38.5215H57.1951C58.0572 38.5215 58.7561 39.2116 58.7561 40.0629C58.7561 40.9143 58.0572 41.6044 57.1951 41.6044H23.8943C23.0322 41.6044 22.3334 40.9143 22.3334 40.0629Z" fill="white"/>
<path fill-rule="evenodd" clip-rule="evenodd" d="M55.1138 49.8173C55.9759 49.8173 56.6748 50.5075 56.6748 51.3588V53.8114L58.2989 55.4152C58.9085 56.0172 58.9085 56.9932 58.2989 57.5952C57.6893 58.1972 56.701 58.1972 56.0914 57.5952L54.0101 55.5399C53.7173 55.2508 53.5529 54.8587 53.5529 54.4499V51.3588C53.5529 50.5075 54.2517 49.8173 55.1138 49.8173Z" fill="white"/>
</svg>
