<svg width="88" height="88" viewBox="0 0 88 88" fill="none" xmlns="http://www.w3.org/2000/svg">
<circle cx="44" cy="44" r="44" fill="#8338EC"/>
<path fill-rule="evenodd" clip-rule="evenodd" d="M27 38.2999C27 33.1485 31.2896 29 36.5455 29C39.2956 29 41.6432 30.4485 43.1851 31.7041C43.6899 32.1152 44.1318 32.5247 44.5 32.8922C44.8682 32.5247 45.3101 32.1152 45.8149 31.7041C47.3568 30.4485 49.7044 29 52.4545 29C57.7104 29 62 33.1485 62 38.2999C62 40.2512 61.601 43.439 59.3786 47.2269C57.1614 51.0059 53.1794 55.2971 46.1477 59.5442L46.1415 59.5479C45.6469 59.8436 45.079 60 44.5 60C43.921 60 43.3531 59.8436 42.8585 59.5479L42.8523 59.5442C35.8206 55.2971 31.8386 51.0059 29.6214 47.2269C27.399 43.439 27 40.2512 27 38.2999ZM43.225 36.1869L43.2237 36.1853L43.2027 36.1584C43.1821 36.1324 43.1488 36.0908 43.1034 36.0359C43.0124 35.9258 42.8735 35.7629 42.6921 35.5648C42.3275 35.1666 41.8007 34.637 41.1547 34.1109C39.8175 33.022 38.1878 32.126 36.5455 32.126C33.0163 32.126 30.1818 34.9048 30.1818 38.2999C30.1818 39.7982 30.4788 42.4287 32.3781 45.6658C34.2807 48.9087 37.8412 52.8447 44.5 56.8699C51.1588 52.8447 54.7193 48.9087 56.6219 45.6658C58.5212 42.4287 58.8182 39.7982 58.8182 38.2999C58.8182 34.9048 55.9837 32.126 52.4545 32.126C50.8122 32.126 49.1825 33.022 47.8453 34.1109C47.1993 34.637 46.6725 35.1666 46.3079 35.5648C46.1265 35.7629 45.9876 35.9258 45.8966 36.0359C45.8512 36.0908 45.8179 36.1324 45.7973 36.1584L45.7763 36.1853L45.775 36.1869C45.7748 36.1871 45.7746 36.1874 45.7745 36.1876C45.7747 36.1872 45.775 36.1869 44.5 35.252M43.225 36.1869C43.2252 36.1871 43.2254 36.1874 43.2255 36.1876C43.2257 36.1878 43.2258 36.1879 43.226 36.1881C43.2261 36.1882 43.2261 36.1884 43.2262 36.1885C43.2263 36.1886 43.2265 36.1888 43.2266 36.189C43.2267 36.1891 43.2268 36.1892 43.2268 36.1893C43.5272 36.5831 43.9989 36.8151 44.5 36.8151C45.0018 36.8151 45.4741 36.5825 45.7745 36.1876" fill="white"/>
</svg>
