<svg width="87" height="87" viewBox="0 0 87 87" fill="none" xmlns="http://www.w3.org/2000/svg">
<rect x="1.5" y="1.5" width="84" height="84" rx="15.5" fill="#8338EC" stroke="white" stroke-width="3"/>
<path fill-rule="evenodd" clip-rule="evenodd" d="M54.053 19.7261C54.7712 19.008 55.9355 19.008 56.6537 19.7261L66.4614 29.5338C67.1795 30.252 67.1795 31.4163 66.4614 32.1345C65.7432 32.8526 64.5789 32.8526 63.8607 32.1345L54.053 22.3268C53.3349 21.6086 53.3349 20.4443 54.053 19.7261Z" fill="white"/>
<path fill-rule="evenodd" clip-rule="evenodd" d="M61.5576 24.63C62.2757 25.3481 62.2757 26.5125 61.5576 27.2306L50.5239 38.2643C49.8058 38.9825 48.6414 38.9825 47.9232 38.2643C47.2051 37.5462 47.2051 36.3818 47.9232 35.6636L58.9569 24.63C59.6751 23.9118 60.8394 23.9118 61.5576 24.63Z" fill="white"/>
<path fill-rule="evenodd" clip-rule="evenodd" d="M40.5675 28.3079C41.2856 27.5897 42.45 27.5897 43.1681 28.3079L57.8797 43.0195C58.5978 43.7376 58.5978 44.902 57.8797 45.6201C57.1615 46.3383 55.9972 46.3383 55.279 45.6201L40.5675 30.9086C39.8493 30.1904 39.8493 29.0261 40.5675 28.3079Z" fill="white"/>
<path fill-rule="evenodd" clip-rule="evenodd" d="M45.62 30.7598C46.3382 31.478 46.3382 32.6423 45.62 33.3605L30.2211 48.7594V55.9664H37.4282L52.8271 40.5675C53.5452 39.8494 54.7096 39.8494 55.4277 40.5675C56.1459 41.2857 56.1459 42.45 55.4277 43.1682L39.4902 59.1057C39.1454 59.4505 38.6776 59.6443 38.1899 59.6443H28.3822C27.3666 59.6443 26.5433 58.821 26.5433 57.8053V47.9976C26.5433 47.5099 26.737 47.0422 27.0819 46.6973L43.0194 30.7598C43.7375 30.0417 44.9019 30.0417 45.62 30.7598Z" fill="white"/>
<path fill-rule="evenodd" clip-rule="evenodd" d="M30.7598 43.0194C31.4779 42.3013 32.6423 42.3013 33.3604 43.0194L37.0383 46.6973C37.7565 47.4155 37.7565 48.5798 37.0383 49.298C36.3201 50.0161 35.1558 50.0161 34.4376 49.298L30.7598 45.6201C30.0416 44.902 30.0416 43.7376 30.7598 43.0194Z" fill="white"/>
<path fill-rule="evenodd" clip-rule="evenodd" d="M38.1155 35.6637C38.8337 34.9455 39.998 34.9455 40.7162 35.6637L44.3941 39.3416C45.1122 40.0597 45.1122 41.2241 44.3941 41.9422C43.6759 42.6604 42.5116 42.6604 41.7934 41.9422L38.1155 38.2643C37.3974 37.5462 37.3974 36.3818 38.1155 35.6637Z" fill="white"/>
<path fill-rule="evenodd" clip-rule="evenodd" d="M29.6825 56.505C30.4007 57.2231 30.4007 58.3875 29.6825 59.1056L22.3268 66.4614C21.6086 67.1796 20.4442 67.1796 19.7261 66.4614C19.0079 65.7433 19.0079 64.5789 19.7261 63.8608L27.0819 56.505C27.8 55.7868 28.9644 55.7868 29.6825 56.505Z" fill="white"/>
</svg>
