<svg width="141" height="91" viewBox="0 0 141 91" fill="none" xmlns="http://www.w3.org/2000/svg">
<path d="M33.8248 40.899C34.0782 41.7936 33.6981 42.5605 32.938 42.9439C31.7978 43.583 30.4043 44.222 28.504 44.7332C28.124 44.861 27.7439 44.861 27.4906 44.7332C27.1105 44.6054 26.8571 44.4776 26.6038 44.222C26.3504 43.9664 26.2237 43.7108 26.097 43.3273C24.7035 39.4931 23.4367 35.2754 22.2965 30.6742C22.1698 30.163 21.9164 29.9074 21.4097 29.9074C20.903 29.9074 20.6496 30.0352 20.3962 30.4186C19.5094 31.9523 18.6226 33.6139 17.6092 35.4032C17.4825 35.7866 17.2291 35.9144 16.8491 35.9144C16.469 35.9144 16.2156 35.7866 15.9623 35.4032C15.2022 34.2529 14.3154 32.7192 13.1752 30.5464C12.9218 30.163 12.5418 29.9074 12.1617 30.0352C11.655 30.0352 11.4016 30.4186 11.4016 30.8021C10.5148 34.8919 9.50135 38.9818 8.10782 43.0717C7.98113 43.583 7.60108 43.9664 7.09434 44.222C6.5876 44.4776 5.95418 44.7332 5.32075 44.6054C3.16712 43.9664 1.52022 43.0717 0.506739 41.9214C0.126685 41.538 0 40.899 0 40.2599C1.26685 30.6742 3.16712 19.0436 5.57412 5.24025C5.70081 4.85683 5.82749 4.60121 5.95418 4.34559C6.20755 4.21778 6.46092 3.96216 6.71429 3.83435C6.96766 3.70655 7.34771 3.57874 7.60108 3.57874H10.3881C10.8949 3.57874 11.2749 3.70655 11.655 4.08997C12.035 4.34559 12.2884 4.72902 12.2884 5.11244L15.3288 19.0436C15.4555 19.5549 15.8356 19.9383 16.3423 19.9383C16.8491 19.9383 17.2291 19.6827 17.3558 19.0436L20.3962 5.11244C20.5229 4.60121 20.6496 4.34559 21.0297 3.96216C21.4097 3.70655 21.7898 3.45093 22.2965 3.45093C23.1833 3.45093 23.9434 3.45093 24.5768 3.45093C25.0836 3.45093 25.4636 3.57874 25.8437 3.96216C26.2237 4.21778 26.4771 4.60121 26.4771 5.11244L33.8248 40.899ZM25.9704 22.4945C26.097 23.2613 26.4771 23.5169 27.1105 23.1335C27.6173 22.7501 27.6173 22.111 27.3639 20.9608C26.8571 18.9158 26.097 15.465 24.8302 10.4804C24.7035 9.71357 24.3235 9.45795 23.8167 9.96919C23.31 10.3526 23.1833 10.9917 23.5633 12.1419C23.5633 12.2697 24.3235 15.7206 25.9704 22.4945ZM26.6038 25.9453C26.7305 26.4565 26.9838 26.7122 27.3639 26.7122C27.7439 26.7122 27.9973 26.4565 28.124 25.9453C28.2507 25.4341 28.2507 24.9228 28.124 24.2838C27.9973 23.7726 27.7439 23.5169 27.3639 23.5169C26.9838 23.5169 26.7305 23.7726 26.6038 24.2838C26.4771 24.9228 26.4771 25.4341 26.6038 25.9453Z" fill="#797979"/>
<path d="M41.9326 11.1195C40.2857 11.1195 38.8922 10.7361 37.752 9.84139C36.7385 8.94673 36.1051 7.92426 36.1051 6.64617C36.1051 5.36808 36.6118 4.3456 37.752 3.45094C38.8922 2.55628 40.2857 2.17285 41.9326 2.17285C43.5795 2.17285 44.973 2.55628 46.1132 3.45094C47.2534 4.3456 47.7601 5.36808 47.7601 6.64617C47.7601 7.41302 47.5067 8.17987 47 8.81892C46.4932 9.45796 45.7331 10.097 44.8463 10.4804C43.9596 10.8639 43.0728 11.1195 41.9326 11.1195ZM44.7197 16.4875C45.2264 16.4875 45.6065 16.6153 45.8598 16.9987C46.2399 17.3821 46.3666 17.7655 46.3666 18.149C47 28.7571 46.7466 37.4481 45.6065 43.9664C45.6065 44.4776 45.3531 44.7332 45.0997 44.9889C44.7197 45.2445 44.3396 45.3723 43.9596 45.5001C42.3127 45.5001 40.7924 45.5001 39.5256 45.5001C39.1455 45.5001 38.7655 45.2445 38.3854 44.9889C38.0054 44.7332 37.8787 44.3498 37.8787 43.9664C36.9919 38.0872 36.7385 29.524 37.2453 18.149C37.2453 17.6377 37.4986 17.2543 37.752 16.9987C38.1321 16.6153 38.5121 16.4875 38.8922 16.4875C40.7924 16.3597 42.6927 16.3597 44.7197 16.4875ZM42.6927 32.7192C42.6927 33.7417 42.9461 34.3807 43.4528 34.3807C43.9595 34.3807 44.2129 33.8695 44.2129 32.7192C44.2129 31.6967 43.9595 31.0577 43.4528 31.0577C42.9461 31.0577 42.6927 31.5689 42.6927 32.7192ZM44.7197 28.8849C44.973 26.5844 45.0997 24.156 45.0997 21.5998C45.0997 20.5773 44.8463 19.9383 44.3396 19.9383C44.0862 19.9383 43.8329 20.0661 43.7062 20.4495C43.5795 20.833 43.5795 21.2164 43.5795 21.472C43.5795 23.7726 43.5795 25.9453 43.3261 27.8625C43.1994 29.0127 43.3261 29.6518 43.8329 29.7796C44.0862 29.9074 44.3396 29.7796 44.4663 29.524C44.4663 29.3962 44.593 29.1406 44.7197 28.8849Z" fill="#797979"/>
<path d="M78.9245 19.8104C79.3045 21.5998 79.4312 23.3891 79.5579 25.1784C79.5579 26.9678 79.4312 28.7571 79.1779 30.6742C78.7978 32.5913 78.2911 34.3807 77.531 35.9144C76.7709 37.5759 75.6307 38.9818 74.1105 40.5155C72.5903 42.0492 70.8167 43.0717 68.7897 43.9664C66.8895 44.7332 64.9892 45.2444 63.2156 45.5001C61.442 45.6279 59.7951 45.5001 58.4016 45.1166C57.0081 44.7332 55.7412 44.3498 54.8544 43.8385C53.9676 43.4551 53.0808 42.9439 52.194 42.3048C51.3072 41.6658 51.0539 40.8989 51.4339 39.7487L52.5741 36.5534C52.7008 36.17 52.8275 36.0422 53.2075 35.9144C53.5876 35.7866 53.8409 35.7866 54.0943 36.0422C54.8544 36.5534 55.7412 36.9369 56.5013 37.1925C57.3881 37.5759 58.4016 37.8315 59.7951 38.0871C61.062 38.3428 62.4555 38.3428 63.9757 38.0871C65.4959 37.8315 66.8895 37.3203 68.1563 36.4256C69.4231 35.6588 70.3099 34.7641 71.07 33.6138C71.7035 32.4635 72.2102 31.3133 72.2102 30.163C72.2102 29.0127 72.3369 27.9902 72.2102 26.9678C72.0835 25.9453 71.8302 25.0506 71.5768 24.0281C71.4501 23.6447 71.1967 23.5169 70.8167 23.3891C70.4366 23.3891 70.1833 23.5169 69.9299 24.0281C69.5498 24.9228 69.1698 25.8175 68.663 26.5843C68.1563 27.3512 67.5229 28.118 66.6361 28.8849C65.7493 29.6517 64.7358 30.2908 63.3423 30.5464C62.0754 30.9298 60.5552 30.9298 58.9083 30.6742C57.5148 30.4186 56.2479 29.9074 55.2345 29.0127C54.221 28.118 53.3342 27.0956 52.8275 25.9453C52.3207 24.795 51.9407 23.5169 51.5606 22.2388C51.1806 20.9607 51.0539 19.6826 51.1806 18.5324C51.1806 17.3821 51.3072 16.3596 51.3072 15.4649C52.3207 7.66859 55.6145 3.19528 61.1886 2.30061C66.256 1.40595 70.1833 2.42842 73.097 5.24022C75.7574 8.43545 77.7843 13.1644 78.9245 19.8104ZM63.2156 22.8779C63.9757 21.2163 64.3558 19.1714 64.6091 16.743C64.7358 14.3147 64.6091 12.2697 64.1024 10.4804C63.5957 8.69106 62.9622 7.7964 62.0754 7.7964C61.1886 7.7964 60.4285 8.56326 59.6684 10.2248C58.9083 11.8863 58.5283 13.9312 58.2749 16.3596C58.1482 18.788 58.2749 20.8329 58.7816 22.6222C59.2884 24.4116 59.9218 25.3062 60.8086 25.3062C61.6954 25.3062 62.4555 24.5394 63.2156 22.8779ZM68.663 9.58573C68.7897 10.097 69.0431 10.3526 69.4231 10.3526C69.8032 10.3526 70.0566 10.097 70.1833 9.58573C70.3099 9.07449 70.3099 8.56326 70.1833 7.92421C70.0566 7.41297 69.8032 7.15736 69.4231 7.15736C69.0431 7.15736 68.7897 7.41297 68.663 7.92421C68.5364 8.56326 68.5364 9.07449 68.663 9.58573ZM75.124 26.8399C75.124 27.479 75.3773 27.8624 75.6307 27.8624C76.0107 27.8624 76.3908 27.479 76.5175 26.7121C76.5175 26.4565 76.5175 26.2009 76.5175 25.9453C76.0108 20.3217 74.7439 15.3371 72.3369 10.9916C71.9568 10.2248 71.5768 10.3526 71.3234 11.2472C70.9434 12.0141 70.9434 12.781 71.3234 13.1644C73.4771 17.1265 74.7439 21.7276 75.124 26.8399Z" fill="#797979"/>
<path d="M110.216 22.2387C110.342 23.2612 110.342 24.2837 110.342 25.3061C110.342 26.3286 110.342 27.4789 110.216 28.8848C110.089 30.1629 109.836 31.441 109.582 32.5912C109.329 33.7415 108.822 35.0196 108.189 36.1699C107.555 37.448 106.922 38.4705 106.035 39.4929C105.148 40.5154 104.135 41.2823 102.868 42.0491C101.601 42.816 100.081 43.3272 98.434 43.7106C96.2803 44.2219 94.3801 44.0941 92.7332 43.7106C90.9596 43.1994 89.566 42.4325 88.5526 41.2823C87.5391 40.132 86.5256 38.8539 85.7655 37.448C85.0054 36.0421 84.372 34.5084 83.9919 32.9747C83.6119 31.441 83.2318 30.0351 83.1051 28.757C82.8518 27.4789 82.7251 26.4564 82.7251 25.5618V24.2837C82.7251 24.028 82.5984 23.6446 82.5984 23.2612C82.5984 22.75 82.5984 21.8553 82.7251 20.4494C82.8518 19.0435 82.9784 17.7654 83.2318 16.4873C83.4852 15.2092 83.8652 13.9311 84.4987 12.3974C85.1321 10.8637 85.8922 9.58563 86.779 8.43534C87.6658 7.41287 88.9326 6.3904 90.4528 5.75136C91.9731 4.9845 93.7466 4.60107 95.7736 4.60107C97.6739 4.60107 99.3208 4.85669 100.841 5.36793C102.361 5.87916 103.628 6.26259 104.515 6.90164C105.402 7.54068 106.415 8.30754 107.049 9.33001C107.809 10.3525 108.315 11.2471 108.695 12.1418C109.075 12.9087 109.329 14.0589 109.582 15.337C109.836 16.6151 109.962 17.6376 110.089 18.2766C110.216 18.9157 110.216 19.8103 110.342 20.9606C110.342 21.0884 110.342 21.2162 110.342 21.3441C110.342 21.4719 110.342 21.4719 110.342 21.5997C110.342 21.7275 110.342 21.8553 110.342 21.8553C110.089 22.1109 110.216 22.1109 110.216 22.2387ZM92.7332 33.7415C93.7466 36.2977 94.8868 37.7036 96.2803 37.7036C97.6739 37.7036 98.814 36.4255 99.8275 33.7415C100.841 31.1853 101.348 27.9901 101.348 24.2837C101.348 20.5772 100.841 17.5098 99.8275 14.8258C98.814 12.2696 97.6739 10.8637 96.2803 10.8637C95.3935 10.8637 94.5067 11.5028 93.7466 12.653C92.9865 13.8033 92.3531 15.4648 91.8464 17.5098C91.4663 19.6825 91.2129 21.9831 91.2129 24.2837C91.2129 27.9901 91.7197 31.1853 92.7332 33.7415ZM104.008 10.7359C103.755 9.84124 103.501 9.71343 102.995 10.3525C102.615 10.9915 102.488 11.7584 102.615 12.2696C104.008 17.382 104.768 21.0884 105.022 23.5168C105.022 23.9002 105.148 24.1559 105.275 24.4115C105.402 24.6671 105.655 24.7949 105.908 24.6671C106.415 24.5393 106.542 23.9002 106.415 22.75C106.415 20.1938 105.528 16.1039 104.008 10.7359ZM105.022 28.2457C105.022 29.2682 105.275 29.9073 105.782 29.9073C106.288 29.9073 106.542 29.396 106.542 28.2457C106.542 27.2233 106.288 26.5842 105.782 26.5842C105.275 26.5842 105.022 27.0955 105.022 28.2457Z" fill="#797979"/>
<path d="M133.272 1.02247C134.919 1.66152 136.439 2.55618 137.58 3.57865C138.72 4.72893 139.48 5.87921 139.987 7.0295C140.493 8.17978 140.747 9.58568 140.873 10.9916C141 12.3975 141 13.6756 140.873 14.698C140.747 15.7205 140.62 16.743 140.367 17.7655C140.24 18.2767 139.987 18.6601 139.606 18.9157C139.226 19.1714 138.72 19.1713 138.213 19.0435L135.553 18.1489C135.173 18.0211 134.792 17.7655 134.666 17.382C134.412 16.9986 134.412 16.6152 134.412 16.2317C134.792 13.9312 134.412 12.014 133.652 10.4803C133.019 9.33006 132.132 8.5632 131.119 8.05197C130.105 7.54073 129.218 7.41292 128.332 7.66854C123.518 8.69101 124.911 13.8034 132.512 22.8778C134.159 24.6671 135.426 26.8399 136.439 29.5239C137.453 32.0801 137.706 34.5084 136.946 36.5534C136.439 38.0871 135.679 39.3652 134.539 40.5155C133.526 41.6657 132.259 42.5604 130.739 43.1994C129.218 43.8385 127.445 44.0941 125.418 43.8385C123.264 43.5829 121.111 42.9438 118.83 41.6657C117.563 41.0267 116.55 40.132 115.663 38.9817C114.776 37.8315 114.143 36.6812 113.763 35.5309C113.509 34.5084 113.256 33.2303 113.003 31.9522C112.749 30.6742 112.623 29.5239 112.749 28.3736C112.749 27.3511 112.876 26.3287 112.876 25.434C112.876 24.9228 113.129 24.5393 113.509 24.2837C113.89 24.0281 114.27 23.9003 114.776 23.9003L118.07 24.5393C118.45 24.6671 118.83 24.7949 119.084 25.1784C119.337 25.434 119.464 25.8174 119.464 26.3287C119.464 27.0955 119.464 27.8624 119.464 28.6292C119.464 29.3961 119.59 30.2907 119.844 31.3132C120.097 32.3357 120.35 33.2303 120.857 33.8694C121.237 34.6362 121.871 35.2753 122.631 35.6587C123.391 36.1699 124.404 36.2978 125.418 36.2978C126.811 36.1699 127.825 35.7865 128.458 35.1475C129.092 34.5084 129.345 33.7416 129.218 32.7191C129.092 31.8244 128.838 30.9298 128.585 30.2907C128.332 29.5239 127.951 28.8848 127.571 28.3736C127.318 27.9902 126.305 26.5843 124.404 24.1559C122.504 21.7275 121.111 19.5548 119.97 17.6376C118.83 15.7205 118.197 13.9312 117.817 12.3975C117.563 10.9916 117.69 9.45787 118.197 7.79635C118.704 6.13483 119.59 4.60112 120.857 3.19523C122.124 1.78933 123.771 0.766854 125.925 0.255618C127.825 -0.255618 130.359 0 133.272 1.02247ZM131.625 5.7514C132.385 6.13483 133.019 6.51826 133.779 7.0295C134.412 7.54073 135.046 8.17978 135.553 8.81882C136.059 9.45787 136.439 10.2247 136.693 10.9916C136.946 11.7584 137.326 12.014 137.706 11.5028C137.96 11.2472 138.086 10.9916 138.086 10.4803C138.086 9.9691 138.086 9.58568 137.96 9.33006C137.453 7.79635 136.693 6.51826 135.679 5.36798C134.666 4.2177 133.399 3.19523 131.879 2.55618C131.372 2.30056 131.119 2.68399 130.992 3.45084C130.865 4.72893 131.119 5.36798 131.625 5.7514ZM136.946 14.4424C136.946 15.4649 137.199 16.1039 137.706 16.1039C138.213 16.1039 138.466 15.5927 138.466 14.4424C138.466 13.4199 138.213 12.7809 137.706 12.7809C137.199 12.7809 136.946 13.4199 136.946 14.4424Z" fill="#797979"/>
<path d="M18.876 51.8903C20.6496 52.1459 22.0431 52.7849 23.0566 54.063C24.0701 55.2133 24.7035 56.4914 24.8302 58.0251C24.9569 59.431 24.9569 60.9647 24.7035 62.3706C24.4501 63.7765 23.9434 65.0546 23.1833 66.0771C22.2965 67.3551 21.4097 68.3776 20.3962 69.4001C19.3827 70.4226 18.3693 71.0616 17.4825 71.7006C16.5957 72.2119 15.5822 72.7231 14.6954 73.1066C13.6819 73.49 12.9218 73.7456 12.1617 73.8734C11.5283 74.0012 10.8949 74.129 10.1348 74.129C9.62802 74.129 9.24797 74.3846 8.9946 74.6403C8.74123 75.0237 8.61454 75.4071 8.61454 75.7905C8.9946 80.2639 9.12128 84.3537 9.24797 88.188C9.24797 88.3158 9.24797 88.5714 9.12128 88.6992C9.12128 88.8271 8.9946 88.9549 8.86791 89.0827C8.74123 89.2105 8.61454 89.3383 8.48786 89.3383C8.36117 89.3383 8.10781 89.4661 7.98112 89.5939H4.68732C4.30727 89.5939 4.0539 89.5939 3.80053 89.3383C3.54716 89.0827 3.42047 88.827 3.29379 88.4436C1.39352 73.7456 0.380042 62.2428 0.253357 53.9352C0.253357 53.5518 0.380042 53.1683 0.633411 52.9127C0.88678 52.5293 1.26683 52.4015 1.64689 52.2737C2.66037 52.0181 3.67384 51.8903 4.68732 51.8903C4.94069 51.8903 5.19406 51.8903 5.44743 52.0181C5.7008 52.1459 5.95417 52.2737 6.08085 52.5293C6.20754 52.7849 6.33422 53.0405 6.33422 53.2962L6.58759 55.2133C6.71427 55.9801 7.09433 56.3636 7.72775 56.6192C8.36117 56.8748 8.9946 56.6192 9.50134 56.108C12.1617 52.6571 15.3288 51.2512 18.876 51.8903ZM4.18058 81.4141C4.30727 82.0532 4.43395 82.4366 4.68732 82.4366C5.06737 82.4366 5.32074 82.0532 5.44743 81.4141C5.44743 81.1585 5.44743 80.9029 5.44743 80.7751C5.32074 79.6248 5.19406 77.8355 4.94069 75.5349C4.68732 73.2344 4.43395 71.445 4.30727 70.2948C4.18058 69.6557 4.0539 69.4001 3.80053 69.4001C3.42047 69.4001 3.1671 69.7835 3.04042 70.4226C3.04042 70.6782 3.04042 70.806 3.04042 71.0616C3.1671 72.0841 3.29379 73.8734 3.54716 76.174C3.80053 78.4745 4.0539 80.2639 4.18058 81.4141ZM4.814 85.6318C4.94069 86.1431 5.19406 86.2709 5.44743 86.2709C5.7008 86.2709 5.95417 86.0153 6.08085 85.6318C6.20754 85.1206 6.20754 84.7372 6.08085 84.2259C5.95417 83.7147 5.7008 83.5869 5.44743 83.5869C5.19406 83.5869 4.94069 83.8425 4.814 84.2259C4.68732 84.7372 4.68732 85.1206 4.814 85.6318ZM13.3019 67.0995C14.442 66.5883 15.4555 65.6936 16.5957 64.5433C17.6092 63.3931 18.3693 62.115 18.7493 60.9647C19.1294 59.8144 19.1294 58.9198 18.4959 58.5363C17.8625 58.1529 17.1024 58.1529 16.0889 58.6641C14.9488 59.1754 13.9353 60.07 12.7951 61.2203C11.7817 62.4984 11.0216 63.6487 10.6415 64.799C10.2614 65.9492 10.3881 66.7161 10.8949 67.2273C11.2749 67.7386 12.1617 67.6108 13.3019 67.0995Z" fill="#797979"/>
<path d="M49.2803 76.941C49.787 77.1966 49.9137 77.4522 49.9137 77.9635C49.787 78.4747 49.6603 79.1137 49.5337 79.7528C49.407 80.3918 49.1536 81.1587 48.7736 82.0533C48.3935 82.948 48.0134 83.8427 47.5067 84.7373C47 85.5042 46.4932 86.3989 45.7331 87.2935C44.973 88.1882 44.0862 88.8272 43.1994 89.4663C42.3126 90.1053 41.1725 90.4887 39.9056 90.8722C38.6388 91.1278 37.2453 91.2556 35.725 91.1278C34.2048 91 32.6846 90.3609 31.4178 89.2106C30.0242 88.0604 28.8841 86.6545 27.8706 84.8651C26.8571 83.2036 26.097 81.1587 25.5903 78.9859C25.0835 76.8132 24.8302 74.6404 24.9568 72.4677C25.0835 70.2949 25.4636 68.25 26.3504 66.0772C27.2372 64.0323 28.504 62.2429 30.0242 60.837C31.4178 59.6868 32.6846 58.6643 33.9515 58.0253C35.2183 57.3862 36.3585 56.875 37.4986 56.7472C38.6388 56.4915 39.6523 56.4915 40.5391 56.6194C41.5525 56.7472 42.4393 57.0028 43.1994 57.3862C43.9595 57.7696 44.7196 58.2809 45.3531 58.7921C45.9865 59.3033 46.6199 59.8146 47.1267 60.4536C48.0134 61.4761 48.3935 62.7542 48.2668 64.1601C48.1401 65.566 47.5067 66.7163 46.4932 67.4831L33.5714 77.58C32.938 77.9635 32.5579 78.6025 32.4312 79.2415C32.3046 80.0084 32.4312 80.6474 32.8113 81.2865C33.9515 83.4592 35.5984 84.4817 37.752 84.4817C38.6388 84.4817 39.5256 84.2261 40.2857 83.8427C41.0458 83.4592 41.8059 82.948 42.3126 82.309C42.8194 81.6699 43.3261 81.0309 43.7062 80.264C44.0862 79.4972 44.4663 78.7303 44.593 78.2191C44.8463 77.58 44.973 76.941 45.0997 76.4297C45.2264 76.1741 45.3531 75.9185 45.6064 75.7907C45.8598 75.6629 46.1132 75.6629 46.4932 75.7907L49.2803 76.941ZM30.7843 71.1896C31.2911 71.7008 32.0512 71.573 33.318 71.0618C34.4582 70.5505 35.725 69.6559 36.9919 68.3778C38.2587 67.0997 39.1455 65.9494 39.6523 64.6713C40.159 63.521 40.2857 62.6264 39.7789 62.2429C39.2722 61.7317 38.5121 61.8595 37.3719 62.3708C36.2318 62.882 34.9649 63.7767 33.6981 65.0547C32.938 65.8216 32.3046 66.7163 31.6711 67.4831C31.1644 68.3778 30.7843 69.0168 30.6577 69.6559C30.4043 70.2949 30.4043 70.8062 30.7843 71.1896ZM41.4258 67.8665C41.4258 66.9719 41.1725 66.4606 40.6657 66.4606C40.159 66.4606 39.9056 66.9719 39.9056 67.8665C39.9056 68.7612 40.159 69.2724 40.6657 69.2724C41.1725 69.2724 41.4258 68.7612 41.4258 67.8665ZM42.0593 64.7991C41.6792 65.3104 41.5525 65.9494 41.8059 66.7163C41.9326 66.9719 42.0593 67.0997 42.186 67.2275C42.3126 67.3553 42.566 67.3553 42.6927 67.0997L45.9865 63.7767C46.3665 63.3932 46.4932 62.7542 46.2399 61.8595C46.1132 61.6039 46.1132 61.4761 45.8598 61.3483C45.7331 61.2205 45.4798 61.2205 45.3531 61.4761L42.0593 64.7991Z" fill="#797979"/>
<path d="M74.2372 75.4071C74.6172 75.4071 74.9973 75.6627 75.2506 75.9183C75.504 76.174 75.6307 76.5574 75.6307 77.0686C75.6307 77.8355 75.504 78.6023 75.3773 79.2414C75.2506 80.0082 74.9973 80.9029 74.7439 81.9254C74.4905 82.9478 74.1105 83.8425 73.6037 84.7372C73.097 85.6318 72.4636 86.3987 71.7035 87.1655C70.9434 87.9324 69.9299 88.5714 68.7897 88.9549C67.6496 89.3383 66.256 89.5939 64.7358 89.5939C63.3423 89.5939 62.2021 89.3383 61.062 88.827C60.0485 88.3158 59.1617 87.6768 58.5283 86.9099C57.8948 86.1431 57.3881 85.2484 57.008 84.0981C56.628 83.0756 56.2479 81.9254 56.1213 80.9029C55.9946 79.8804 55.8679 78.7301 55.7412 77.5799C55.7412 76.4296 55.7412 75.4071 55.7412 74.6403C55.8679 73.8734 55.8679 73.1065 55.9946 72.3397C55.9946 72.2119 55.9946 72.0841 55.9946 71.9563C55.9946 71.8285 55.8679 71.7006 55.8679 71.5728C55.8679 71.445 55.7412 71.5728 55.6145 71.445C55.4878 71.3172 55.3611 71.3172 55.2345 71.3172C54.7277 71.3172 54.3477 71.3172 53.8409 71.3172C53.0808 71.3172 52.4474 71.3172 51.814 71.3172C51.4339 71.3172 51.3072 71.1894 51.1806 70.806C51.0539 69.6557 50.9272 68.6332 50.9272 67.4829C50.9272 66.5883 51.0539 65.6936 51.1806 64.799C51.3072 64.4155 51.4339 64.2877 51.814 64.2877C52.5741 64.2877 53.2075 64.2877 53.9676 64.2877C54.601 64.2877 55.2345 64.2877 55.8679 64.2877C56.1213 64.2877 56.3746 64.1599 56.628 64.0321C56.8814 63.9043 57.008 63.6487 57.008 63.3931C57.5148 59.9422 58.1482 56.3636 59.035 52.6571C59.1617 52.1459 59.4151 51.7624 60.0485 51.8902L63.5956 52.1459C63.7223 52.1459 63.849 52.2737 63.9757 52.2737C64.1024 52.4015 64.2291 52.4015 64.3558 52.5293C64.4824 52.6571 64.4824 52.7849 64.4824 52.9127C64.4824 53.0405 64.4824 53.1683 64.4824 53.2962C64.1024 54.5742 63.7223 56.6192 63.3423 59.3032C63.0889 61.2203 62.8355 62.6262 62.7089 63.6487C62.7089 63.7765 62.7089 64.0321 62.8355 64.1599C62.9622 64.2877 63.0889 64.2877 63.3423 64.2877C63.7223 64.2877 64.4824 64.2877 65.876 64.2877C67.5229 64.2877 68.4097 64.4155 68.7897 64.4155C69.0431 64.5433 69.1698 64.6711 69.2965 64.9268C69.4231 65.8214 69.4231 66.8439 69.4231 67.7386C69.4231 68.761 69.4231 69.9113 69.2965 70.9338C69.2965 71.3172 69.0431 71.445 68.7897 71.445C68.4097 71.445 67.5229 71.5728 66.1293 71.5728C64.7358 71.5728 63.5956 71.5728 62.8355 71.5728C62.4555 71.5728 62.3288 71.7006 62.2021 71.9563C62.0754 72.4675 62.0754 72.9787 62.0754 73.6178C62.0754 74.2568 61.9487 74.8959 61.9487 75.7905C61.9487 76.6852 61.9487 77.5799 61.9487 78.3467C62.0754 79.1136 62.2021 79.8804 62.3288 80.6473C62.4555 81.4141 62.8355 82.0532 63.2156 82.4366C63.5956 82.9478 64.2291 83.2034 64.8625 83.3313C65.3692 83.3313 65.876 83.3313 66.3827 83.3313C66.7628 83.3313 67.2695 83.2035 67.5229 82.9478C67.9029 82.6922 68.1563 82.5644 68.4097 82.3088C68.663 82.0532 68.9164 81.7976 69.0431 81.2863C69.2965 80.9029 69.4231 80.5195 69.5498 80.136C69.6765 79.7526 69.8032 79.3692 69.9299 78.9858C70.0566 78.6023 70.0566 78.2189 70.0566 77.8355C70.0566 77.452 70.0566 77.0686 70.0566 76.813C70.0566 76.4296 70.3099 76.0461 70.5633 75.7905C70.8167 75.5349 71.1967 75.4071 71.7035 75.4071H74.2372ZM66.1293 87.8046C66.3827 87.8046 66.5094 87.6768 66.6361 87.2933C66.7628 86.9099 66.7628 86.5265 66.6361 86.1431C66.5094 85.7596 66.3827 85.6318 66.1293 85.6318C64.6091 85.6318 63.2156 85.2484 61.8221 84.6093C61.442 84.3537 61.062 84.2259 60.6819 83.9703C60.4285 83.8425 60.3018 83.7147 60.3018 83.5869C59.9218 83.3313 59.6684 83.4591 59.5417 84.0981C59.4151 84.7372 59.4151 85.2484 59.7951 85.504C61.442 86.9099 63.5956 87.6768 66.1293 87.8046ZM67.3962 86.3987C67.3962 87.1655 67.5229 87.549 67.9029 87.549C68.283 87.549 68.4097 87.1655 68.4097 86.3987C68.4097 85.6318 68.283 85.2484 67.9029 85.2484C67.5229 85.2484 67.3962 85.6318 67.3962 86.3987Z" fill="#797979"/>
<path d="M94.7601 52.0182C96.2803 52.5294 97.5472 53.2963 98.434 54.3187C99.4474 55.3412 100.081 56.3637 100.588 57.3861C100.968 58.4086 101.348 59.5589 101.474 60.837C101.601 62.1151 101.601 63.1375 101.474 64.0322C101.348 64.9269 101.221 65.8215 101.094 66.7162C100.968 67.0996 100.714 67.4831 100.334 67.7387C99.9542 67.9943 99.5741 67.9943 99.1941 67.8665L96.9137 67.0996C96.5337 66.9718 96.2803 66.844 96.0269 66.4606C95.7736 66.205 95.7736 65.8215 95.9003 65.4381C96.1536 63.3932 95.9003 61.7316 95.2668 60.4536C94.6334 59.4311 93.8733 58.792 92.9865 58.4086C92.0997 58.0252 91.3396 57.8974 90.5795 58.0252C86.2722 58.9199 87.5391 63.3932 94.2534 71.3173C95.6469 72.851 96.7871 74.7682 97.6738 77.0687C98.5606 79.3693 98.6873 81.4142 98.0539 83.2036C97.5472 84.4816 96.9137 85.6319 96.0269 86.6544C95.1402 87.6769 94 88.4437 92.7331 88.955C91.4663 89.594 89.8194 89.7218 88.0458 89.594C86.2722 89.4662 84.2453 88.6993 82.2183 87.6769C81.2048 87.1656 80.1914 86.3988 79.4313 85.3763C78.6712 84.3538 78.1644 83.4592 77.7844 82.3089C77.4043 81.2864 77.1509 80.1361 76.8976 78.9859C76.6442 77.8356 76.6442 76.8131 76.6442 75.9184C76.6442 75.0238 76.7709 74.1291 76.7709 73.3623C76.7709 72.9788 77.0242 72.5954 77.2776 72.3398C77.6577 72.0842 78.0377 71.9564 78.4178 72.0842L81.3315 72.5954C81.7116 72.7232 81.965 72.851 82.2183 73.1066C82.4717 73.3623 82.5984 73.7457 82.5984 74.1291C82.5984 74.7682 82.5984 75.535 82.5984 76.1741C82.5984 76.8131 82.7251 77.58 82.9784 78.4746C83.2318 79.3693 83.4852 80.1361 83.8652 80.7752C84.2453 81.4142 84.752 81.9255 85.3854 82.3089C86.0189 82.6923 86.9057 82.9479 87.7924 82.8201C89.0593 82.6923 89.8194 82.4367 90.4528 81.7977C91.0862 81.1586 91.2129 80.5196 91.0862 79.7527C90.9596 78.9859 90.7062 78.219 90.4528 77.58C90.1995 76.9409 89.8194 76.3019 89.566 75.9184C89.3127 75.535 88.4259 74.3847 86.779 72.212C85.1321 70.0392 83.8652 68.1221 82.8517 66.4606C81.8383 64.7991 81.2048 63.2654 81.0782 61.8595C80.8248 60.5814 80.9515 59.3033 81.4582 57.8974C81.8383 56.4915 82.5984 55.0856 83.7385 53.8075C84.8787 52.5294 86.2722 51.7625 88.1725 51.2513C90.0728 50.9957 92.2264 51.1235 94.7601 52.0182ZM93.3666 56.2359C94 56.6193 94.6334 57.0027 95.1402 57.3861C95.7736 57.8974 96.2803 58.4086 96.6604 58.9198C97.1671 59.5589 97.4205 60.1979 97.6738 60.837C97.9272 61.476 98.1806 61.7316 98.5606 61.3482C98.814 61.2204 98.9407 60.837 98.9407 60.4536C98.9407 60.0701 98.9407 59.6867 98.814 59.4311C98.434 58.153 97.8005 57.0027 96.7871 55.9802C95.9003 54.9578 94.7601 54.0631 93.4933 53.5519C93.1132 53.4241 92.8598 53.6797 92.7331 54.3187C92.7331 55.2134 92.8598 55.8524 93.3666 56.2359ZM97.9272 63.7766C97.9272 64.6713 98.1806 65.1825 98.6873 65.1825C99.1941 65.1825 99.4474 64.6713 99.4474 63.7766C99.4474 62.8819 99.1941 62.3707 98.6873 62.3707C98.1806 62.3707 97.9272 62.8819 97.9272 63.7766Z" fill="#797979"/>
</svg>
