<svg width="132" height="85" viewBox="0 0 132 85" fill="none" xmlns="http://www.w3.org/2000/svg">
<g clip-path="url(#clip0_103_413)">
<path d="M31.6658 38.2023C31.903 39.0379 31.5472 39.7542 30.8356 40.1124C29.7682 40.7093 28.4636 41.3062 26.6846 41.7837C26.3288 41.9031 25.973 41.9031 25.7358 41.7837C25.3801 41.6643 25.1429 41.545 24.9057 41.3062C24.6685 41.0674 24.5499 40.8287 24.4313 40.4705C23.1267 36.8891 21.9407 32.9495 20.8733 28.6517C20.7547 28.1742 20.5175 27.9354 20.0431 27.9354C19.5687 27.9354 19.3315 28.0548 19.0943 28.4129C18.2642 29.8455 17.434 31.3975 16.4852 33.0688C16.3666 33.427 16.1294 33.5464 15.7736 33.5464C15.4178 33.5464 15.1806 33.427 14.9434 33.0688C14.2318 31.9944 13.4016 30.5618 12.3342 28.5323C12.097 28.1742 11.7412 27.9354 11.3854 28.0548C10.9111 28.0548 10.6739 28.4129 10.6739 28.7711C9.84367 32.5913 8.89488 36.4115 7.5903 40.2318C7.4717 40.7093 7.1159 41.0674 6.64151 41.3062C6.16712 41.545 5.57412 41.7837 4.98113 41.6643C2.96496 41.0674 1.42318 40.2318 0.474394 39.1573C0.118598 38.7992 0 38.2023 0 37.6054C1.18598 28.6517 2.96496 17.7879 5.21833 4.89468C5.33693 4.53653 5.45552 4.29777 5.57412 4.059C5.81132 3.93962 6.04852 3.70086 6.28571 3.58147C6.52291 3.46209 6.87871 3.34271 7.1159 3.34271H9.72507C10.1995 3.34271 10.5553 3.46209 10.9111 3.82024C11.2668 4.059 11.504 4.41715 11.504 4.77529L14.3504 17.7879C14.469 18.2655 14.8248 18.6236 15.2992 18.6236C15.7736 18.6236 16.1294 18.3848 16.248 17.7879L19.0943 4.77529C19.2129 4.29777 19.3315 4.059 19.6873 3.70086C20.0431 3.46209 20.3989 3.22333 20.8733 3.22333C21.7035 3.22333 22.4151 3.22333 23.0081 3.22333C23.4825 3.22333 23.8383 3.34271 24.1941 3.70086C24.5499 3.93962 24.7871 4.29777 24.7871 4.77529L31.6658 38.2023ZM24.3127 21.0113C24.4313 21.7275 24.7871 21.9663 25.3801 21.6082C25.8544 21.25 25.8544 20.6531 25.6173 19.5787C25.1429 17.6686 24.4313 14.4452 23.2453 9.78934C23.1267 9.07305 22.7709 8.83428 22.2965 9.31181C21.8221 9.66996 21.7035 10.2669 22.0593 11.3413C22.0593 11.4607 22.7709 14.684 24.3127 21.0113ZM24.9057 24.2346C25.0243 24.7121 25.2615 24.9509 25.6173 24.9509C25.973 24.9509 26.2102 24.7121 26.3288 24.2346C26.4474 23.757 26.4474 23.2795 26.3288 22.6826C26.2102 22.2051 25.973 21.9663 25.6173 21.9663C25.2615 21.9663 25.0243 22.2051 24.9057 22.6826C24.7871 23.2795 24.7871 23.757 24.9057 24.2346Z" fill="#8338EC"/>
<path d="M39.2561 10.3862C37.7143 10.3862 36.4097 10.0281 35.3423 9.1924C34.3935 8.35673 33.8005 7.40167 33.8005 6.20785C33.8005 5.01403 34.2749 4.05897 35.3423 3.2233C36.4097 2.38763 37.7143 2.02948 39.2561 2.02948C40.7978 2.02948 42.1024 2.38763 43.1698 3.2233C44.2372 4.05897 44.7116 5.01403 44.7116 6.20785C44.7116 6.92414 44.4744 7.64043 44 8.23735C43.5256 8.83426 42.814 9.43117 41.9838 9.78931C41.1536 10.1475 40.3234 10.3862 39.2561 10.3862ZM41.8652 15.4003C42.3396 15.4003 42.6954 15.5196 42.9326 15.8778C43.2884 16.2359 43.407 16.5941 43.407 16.9522C44 26.8609 43.7628 34.9789 42.6954 41.0674C42.6954 41.5449 42.4582 41.7837 42.221 42.0225C41.8652 42.2612 41.5094 42.3806 41.1536 42.5C39.6119 42.5 38.1887 42.5 37.0027 42.5C36.6469 42.5 36.2911 42.2612 35.9353 42.0225C35.5795 41.7837 35.4609 41.4255 35.4609 41.0674C34.6307 35.5758 34.3935 27.5772 34.8679 16.9522C34.8679 16.4747 35.1051 16.1166 35.3423 15.8778C35.6981 15.5196 36.0539 15.4003 36.4097 15.4003C38.1887 15.2809 39.9677 15.2809 41.8652 15.4003ZM39.9677 30.5618C39.9677 31.5168 40.2048 32.1137 40.6792 32.1137C41.1536 32.1137 41.3908 31.6362 41.3908 30.5618C41.3908 29.6067 41.1536 29.0098 40.6792 29.0098C40.2048 29.0098 39.9677 29.4873 39.9677 30.5618ZM41.8652 26.9803C42.1024 24.8314 42.221 22.5632 42.221 20.1755C42.221 19.2205 41.9838 18.6236 41.5094 18.6236C41.2722 18.6236 41.035 18.743 40.9164 19.1011C40.7978 19.4593 40.7978 19.8174 40.7978 20.0562C40.7978 22.205 40.7978 24.2345 40.5606 26.0253C40.442 27.0997 40.5606 27.6966 41.035 27.816C41.2722 27.9354 41.5094 27.816 41.628 27.5772C41.628 27.4579 41.7466 27.2191 41.8652 26.9803Z" fill="#8338EC"/>
<path d="M73.8868 18.5042C74.2426 20.1756 74.3612 21.8469 74.4798 23.5183C74.4798 25.1896 74.3612 26.861 74.124 28.6517C73.7682 30.4424 73.2938 32.1138 72.5822 33.5464C71.8706 35.0983 70.8032 36.4115 69.38 37.8441C67.9569 39.2767 66.2965 40.2317 64.3989 41.0674C62.6199 41.7837 60.841 42.2612 59.1806 42.5C57.5202 42.6194 55.9784 42.5 54.6738 42.1419C53.3693 41.7837 52.1833 41.4256 51.3531 40.948C50.5229 40.5899 49.6927 40.1124 48.8625 39.5154C48.0323 38.9185 47.7951 38.2023 48.1509 37.1278L49.2183 34.1433C49.3369 33.7851 49.4555 33.6657 49.8113 33.5464C50.1671 33.427 50.4043 33.427 50.6415 33.6657C51.3531 34.1433 52.1833 34.5014 52.8949 34.7402C53.7251 35.0983 54.6738 35.3371 55.9784 35.5758C57.1644 35.8146 58.469 35.8146 59.8922 35.5758C61.3154 35.3371 62.6199 34.8596 63.8059 34.0239C64.9919 33.3076 65.8221 32.4719 66.5337 31.3975C67.1267 30.323 67.6011 29.2486 67.6011 28.1742C67.6011 27.0997 67.7197 26.1447 67.6011 25.1896C67.4825 24.2346 67.2453 23.3989 67.0081 22.4438C66.8895 22.0857 66.6523 21.9663 66.2965 21.8469C65.9407 21.8469 65.7035 21.9663 65.4663 22.4438C65.1105 23.2795 64.7547 24.1152 64.2803 24.8315C63.8059 25.5478 63.2129 26.264 62.3827 26.9803C61.5525 27.6966 60.6038 28.2935 59.2992 28.5323C58.1132 28.8905 56.69 28.8905 55.1482 28.6517C53.8437 28.4129 52.6577 27.9354 51.7089 27.0997C50.7601 26.264 49.9299 25.309 49.4555 24.2346C48.9811 23.1601 48.6253 21.9663 48.2695 20.7725C47.9137 19.5787 47.7951 18.3848 47.9137 17.3104C47.9137 16.236 48.0323 15.2809 48.0323 14.4452C48.9811 7.16292 52.0647 2.98455 57.283 2.14888C62.0269 1.3132 65.7035 2.26826 68.4313 4.89467C70.9218 7.87922 72.8194 12.2964 73.8868 18.5042ZM59.1806 21.3694C59.8922 19.8174 60.248 17.9073 60.4852 15.639C60.6038 13.3708 60.4852 11.4607 60.0108 9.78933C59.5364 8.11798 58.9434 7.28231 58.1132 7.28231C57.283 7.28231 56.5714 7.9986 55.8598 9.55056C55.1482 11.1025 54.7924 13.0126 54.5552 15.2809C54.4366 17.5492 54.5552 19.4593 55.0296 21.1306C55.504 22.802 56.097 23.6376 56.9272 23.6376C57.7574 23.6376 58.469 22.9214 59.1806 21.3694ZM64.2803 8.95365C64.3989 9.43118 64.6361 9.66995 64.9919 9.66995C65.3477 9.66995 65.5849 9.43118 65.7035 8.95365C65.8221 8.47613 65.8221 7.9986 65.7035 7.40169C65.5849 6.92416 65.3477 6.6854 64.9919 6.6854C64.6361 6.6854 64.3989 6.92416 64.2803 7.40169C64.1617 7.9986 64.1617 8.47613 64.2803 8.95365ZM70.3288 25.0702C70.3288 25.6671 70.566 26.0253 70.8032 26.0253C71.159 26.0253 71.5148 25.6671 71.6334 24.9508C71.6334 24.7121 71.6334 24.4733 71.6334 24.2346C71.159 18.9817 69.973 14.3258 67.7197 10.2669C67.3639 9.55056 67.0081 9.66995 66.7709 10.5056C66.4151 11.2219 66.4151 11.9382 66.7709 12.2964C68.7871 15.9972 69.973 20.2949 70.3288 25.0702Z" fill="#8338EC"/>
<path d="M103.181 20.7725C103.299 21.7275 103.299 22.6826 103.299 23.6376C103.299 24.5927 103.299 25.6671 103.181 26.9803C103.062 28.1742 102.825 29.368 102.588 30.4424C102.35 31.5169 101.876 32.7107 101.283 33.7851C100.69 34.9789 100.097 35.934 99.2668 36.8891C98.4367 37.8441 97.4879 38.5604 96.3019 39.2767C95.1159 39.993 93.6927 40.4705 92.1509 40.8287C90.1348 41.3062 88.3558 41.1868 86.814 40.8287C85.1536 40.3511 83.8491 39.6348 82.9003 38.5604C81.9515 37.486 81.0027 36.2921 80.2911 34.9789C79.5795 33.6657 78.9865 32.2332 78.6307 30.8006C78.2749 29.368 77.9191 28.0548 77.8005 26.861C77.5633 25.6671 77.4447 24.7121 77.4447 23.8764V22.6826C77.4447 22.4438 77.3261 22.0857 77.3261 21.7275C77.3261 21.25 77.3261 20.4143 77.4447 19.1011C77.5633 17.7879 77.6819 16.5941 77.9191 15.4003C78.1563 14.2065 78.5121 13.0126 79.1051 11.5801C79.6981 10.1475 80.4097 8.95366 81.2399 7.87922C82.0701 6.92416 83.2561 5.96911 84.6792 5.3722C86.1024 4.65591 87.7628 4.29776 89.6604 4.29776C91.4394 4.29776 92.9811 4.53652 94.4043 5.01405C95.8275 5.49158 97.0135 5.84973 97.8437 6.44664C98.6739 7.04355 99.6226 7.75984 100.216 8.7149C100.927 9.66995 101.402 10.5056 101.757 11.3413C102.113 12.0576 102.35 13.132 102.588 14.3259C102.825 15.5197 102.943 16.4747 103.062 17.0716C103.181 17.6685 103.181 18.5042 103.299 19.5787C103.299 19.698 103.299 19.8174 103.299 19.9368C103.299 20.0562 103.299 20.0562 103.299 20.1756C103.299 20.295 103.299 20.4143 103.299 20.4143C103.062 20.6531 103.181 20.6531 103.181 20.7725ZM86.814 31.5169C87.7628 33.9045 88.8302 35.2177 90.1348 35.2177C91.4394 35.2177 92.5067 34.0239 93.4555 31.5169C94.4043 29.1292 94.8787 26.1447 94.8787 22.6826C94.8787 19.2205 94.4043 16.3553 93.4555 13.8483C92.5067 11.4607 91.4394 10.1475 90.1348 10.1475C89.3046 10.1475 88.4744 10.7444 87.7628 11.8188C87.0512 12.8933 86.4582 14.4452 85.9838 16.3553C85.628 18.3848 85.3908 20.5337 85.3908 22.6826C85.3908 26.1447 85.8652 29.1292 86.814 31.5169ZM97.3693 10.0281C97.1321 9.19242 96.8949 9.07304 96.4205 9.66995C96.0647 10.2669 95.9461 10.9832 96.0647 11.4607C97.3693 16.236 98.0809 19.698 98.3181 21.9663C98.3181 22.3244 98.4367 22.5632 98.5553 22.802C98.6739 23.0407 98.911 23.1601 99.1482 23.0407C99.6226 22.9214 99.7412 22.3244 99.6226 21.25C99.6226 18.8624 98.7924 15.0421 97.3693 10.0281ZM98.3181 26.3834C98.3181 27.3385 98.5553 27.9354 99.0296 27.9354C99.504 27.9354 99.7412 27.4579 99.7412 26.3834C99.7412 25.4284 99.504 24.8315 99.0296 24.8315C98.5553 24.8315 98.3181 25.309 98.3181 26.3834Z" fill="#8338EC"/>
<path d="M124.766 0.955056C126.307 1.55197 127.73 2.38764 128.798 3.3427C129.865 4.41714 130.577 5.49157 131.051 6.56601C131.526 7.64045 131.763 8.95365 131.881 10.2669C132 11.5801 132 12.7739 131.881 13.7289C131.763 14.684 131.644 15.639 131.407 16.5941C131.288 17.0716 131.051 17.4298 130.695 17.6685C130.34 17.9073 129.865 17.9073 129.391 17.7879L126.9 16.9522C126.544 16.8329 126.189 16.5941 126.07 16.236C125.833 15.8778 125.833 15.5197 125.833 15.1615C126.189 13.0126 125.833 11.2219 125.121 9.78933C124.528 8.71489 123.698 7.9986 122.749 7.52107C121.801 7.04354 120.97 6.92416 120.14 7.16292C115.633 8.11798 116.938 12.8933 124.054 21.3694C125.596 23.0407 126.782 25.0702 127.73 27.5773C128.679 29.9649 128.916 32.2332 128.205 34.1433C127.73 35.5758 127.019 36.7697 125.951 37.8441C125.003 38.9185 123.817 39.7542 122.394 40.3511C120.97 40.948 119.31 41.1868 117.412 40.948C115.396 40.7093 113.38 40.1124 111.245 38.9185C110.059 38.3216 109.111 37.486 108.28 36.4115C107.45 35.3371 106.857 34.2626 106.501 33.1882C106.264 32.2332 106.027 31.0393 105.79 29.8455C105.553 28.6517 105.434 27.5773 105.553 26.5028C105.553 25.5478 105.671 24.5927 105.671 23.757C105.671 23.2795 105.908 22.9214 106.264 22.6826C106.62 22.4438 106.976 22.3244 107.45 22.3244L110.534 22.9214C110.889 23.0407 111.245 23.1601 111.482 23.5183C111.72 23.757 111.838 24.1152 111.838 24.5927C111.838 25.309 111.838 26.0253 111.838 26.7416C111.838 27.4579 111.957 28.2935 112.194 29.2486C112.431 30.2037 112.668 31.0393 113.143 31.6362C113.499 32.3525 114.092 32.9494 114.803 33.3076C115.515 33.7851 116.464 33.9045 117.412 33.9045C118.717 33.7851 119.666 33.427 120.259 32.8301C120.852 32.2332 121.089 31.5169 120.97 30.5618C120.852 29.7261 120.615 28.8905 120.377 28.2935C120.14 27.5773 119.784 26.9803 119.429 26.5028C119.191 26.1447 118.243 24.8315 116.464 22.5632C114.685 20.2949 113.38 18.2655 112.313 16.4747C111.245 14.684 110.652 13.0126 110.297 11.5801C110.059 10.2669 110.178 8.83427 110.652 7.2823C111.127 5.73034 111.957 4.29775 113.143 2.98455C114.329 1.67135 115.871 0.716292 117.887 0.238764C119.666 -0.238764 122.038 0 124.766 0.955056ZM123.224 5.37219C123.935 5.73034 124.528 6.08848 125.24 6.56601C125.833 7.04354 126.426 7.64045 126.9 8.23736C127.375 8.83427 127.73 9.55056 127.968 10.2669C128.205 10.9831 128.561 11.2219 128.916 10.7444C129.154 10.5056 129.272 10.2669 129.272 9.78933C129.272 9.3118 129.272 8.95365 129.154 8.71489C128.679 7.2823 127.968 6.08848 127.019 5.01405C126.07 3.93961 124.884 2.98455 123.461 2.38764C122.987 2.14888 122.749 2.50702 122.631 3.22332C122.512 4.41714 122.749 5.01405 123.224 5.37219ZM128.205 13.4902C128.205 14.4452 128.442 15.0421 128.916 15.0421C129.391 15.0421 129.628 14.5646 129.628 13.4902C129.628 12.5351 129.391 11.9382 128.916 11.9382C128.442 11.9382 128.205 12.5351 128.205 13.4902Z" fill="#8338EC"/>
<path d="M17.6711 48.4691C19.3315 48.7079 20.6361 49.3048 21.5849 50.4986C22.5337 51.573 23.1267 52.7669 23.2453 54.1994C23.3639 55.5126 23.3639 56.9452 23.1267 58.2584C22.8895 59.5716 22.4151 60.7654 21.7035 61.7205C20.8733 62.9143 20.0431 63.8694 19.0943 64.8244C18.1455 65.7795 17.1968 66.3764 16.3666 66.9733C15.5364 67.4508 14.5876 67.9284 13.7574 68.2865C12.8086 68.6447 12.097 68.8834 11.3854 69.0028C10.7924 69.1222 10.1994 69.2416 9.48786 69.2416C9.01346 69.2416 8.65767 69.4803 8.42047 69.7191C8.18327 70.0772 8.06468 70.4354 8.06468 70.7935C8.42047 74.9719 8.53907 78.7921 8.65767 82.3736C8.65767 82.493 8.65767 82.7317 8.53907 82.8511C8.53907 82.9705 8.42047 83.0899 8.30187 83.2093C8.18327 83.3286 8.06468 83.448 7.94608 83.448C7.82748 83.448 7.59028 83.5674 7.47168 83.6868H4.38813C4.03233 83.6868 3.79513 83.6868 3.55794 83.448C3.32074 83.2093 3.20214 82.9705 3.08354 82.6124C1.30457 68.8834 0.355781 58.139 0.237183 50.3792C0.237183 50.0211 0.355781 49.6629 0.592978 49.4242C0.830175 49.066 1.18597 48.9466 1.54176 48.8272C2.49055 48.5885 3.43934 48.4691 4.38813 48.4691C4.62532 48.4691 4.86252 48.4691 5.09972 48.5885C5.33691 48.7079 5.57411 48.8272 5.69271 49.066C5.81131 49.3048 5.9299 49.5435 5.9299 49.7823L6.1671 51.573C6.2857 52.2893 6.6415 52.6475 7.23449 52.8862C7.82748 53.125 8.42047 52.8862 8.89486 52.4087C11.3854 49.1854 14.3504 47.8722 17.6711 48.4691ZM3.91373 76.0463C4.03233 76.6433 4.15093 77.0014 4.38813 77.0014C4.74392 77.0014 4.98112 76.6433 5.09972 76.0463C5.09972 75.8076 5.09972 75.5688 5.09972 75.4494C4.98112 74.375 4.86252 72.7036 4.62532 70.5548C4.38813 68.4059 4.15093 66.7345 4.03233 65.6601C3.91373 65.0632 3.79513 64.8244 3.55794 64.8244C3.20214 64.8244 2.96495 65.1826 2.84635 65.7795C2.84635 66.0183 2.84635 66.1376 2.84635 66.3764C2.96495 67.3315 3.08354 69.0028 3.32074 71.1517C3.55794 73.3006 3.79513 74.9719 3.91373 76.0463ZM4.50672 79.986C4.62532 80.4635 4.86252 80.5829 5.09972 80.5829C5.33691 80.5829 5.57411 80.3441 5.69271 79.986C5.81131 79.5084 5.81131 79.1503 5.69271 78.6728C5.57411 78.1952 5.33691 78.0758 5.09972 78.0758C4.86252 78.0758 4.62532 78.3146 4.50672 78.6728C4.38813 79.1503 4.38813 79.5084 4.50672 79.986ZM12.4528 62.6756C13.5202 62.198 14.469 61.3624 15.5364 60.2879C16.4852 59.2135 17.1968 58.0197 17.5525 56.9452C17.9083 55.8708 17.9083 55.0351 17.3153 54.677C16.7224 54.3188 16.0108 54.3188 15.062 54.7963C13.9946 55.2739 13.0458 56.1095 11.9784 57.184C11.0296 58.3778 10.318 59.4522 9.96225 60.5267C9.60645 61.6011 9.72505 62.3174 10.1994 62.7949C10.5552 63.2725 11.3854 63.1531 12.4528 62.6756Z" fill="#8338EC"/>
<path d="M46.1347 71.868C46.6091 72.1067 46.7277 72.3455 46.7277 72.823C46.6091 73.3005 46.4905 73.8975 46.3719 74.4944C46.2533 75.0913 46.0161 75.8076 45.6603 76.6432C45.3045 77.4789 44.9487 78.3146 44.4744 79.1503C44 79.8666 43.5256 80.7022 42.814 81.5379C42.1024 82.3736 41.2722 82.9705 40.442 83.5674C39.6118 84.1643 38.5444 84.5225 37.3584 84.8806C36.1725 85.1194 34.8679 85.2388 33.4447 85.1194C32.0215 85 30.5983 84.4031 29.4124 83.3286C28.1078 82.2542 27.0404 80.941 26.0916 79.2696C25.1428 77.7177 24.4312 75.8076 23.9568 73.7781C23.4824 71.7486 23.2452 69.7191 23.3638 67.6896C23.4824 65.6601 23.8382 63.75 24.6684 61.7205C25.4986 59.8104 26.6846 58.139 28.1078 56.8258C29.4124 55.7514 30.5983 54.7963 31.7843 54.1994C32.9703 53.6025 34.0377 53.125 35.1051 53.0056C36.1725 52.7668 37.1213 52.7668 37.9514 52.8862C38.9002 53.0056 39.7304 53.2444 40.442 53.6025C41.1536 53.9607 41.8652 54.4382 42.4582 54.9157C43.0512 55.3932 43.6442 55.8708 44.1186 56.4677C44.9487 57.4227 45.3045 58.6166 45.1859 59.9298C45.0673 61.243 44.4744 62.3174 43.5256 63.0337L31.4285 72.4649C30.8355 72.823 30.4797 73.4199 30.3611 74.0168C30.2425 74.7331 30.3611 75.33 30.7169 75.9269C31.7843 77.9564 33.3261 78.9115 35.3423 78.9115C36.1725 78.9115 37.0027 78.6727 37.7142 78.3146C38.4258 77.9564 39.1374 77.4789 39.6118 76.882C40.0862 76.2851 40.5606 75.6882 40.9164 74.9719C41.2722 74.2556 41.628 73.5393 41.7466 73.0618C41.9838 72.4649 42.1024 71.868 42.221 71.3904C42.3396 71.1517 42.4582 70.9129 42.6954 70.7935C42.9326 70.6741 43.1698 70.6741 43.5256 70.7935L46.1347 71.868ZM28.8194 66.4958C29.2938 66.9733 30.0053 66.8539 31.1913 66.3764C32.2587 65.8989 33.4447 65.0632 34.6307 63.8694C35.8167 62.6755 36.6469 61.6011 37.1213 60.4073C37.5956 59.3328 37.7142 58.4972 37.2399 58.139C36.7655 57.6615 36.0539 57.7809 34.9865 58.2584C33.9191 58.7359 32.7331 59.5716 31.5471 60.7654C30.8355 61.4817 30.2425 62.3174 29.6496 63.0337C29.1752 63.8694 28.8194 64.4663 28.7008 65.0632C28.4636 65.6601 28.4636 66.1376 28.8194 66.4958ZM38.7816 63.3918C38.7816 62.5562 38.5444 62.0786 38.07 62.0786C37.5956 62.0786 37.3584 62.5562 37.3584 63.3918C37.3584 64.2275 37.5956 64.705 38.07 64.705C38.5444 64.705 38.7816 64.2275 38.7816 63.3918ZM39.3746 60.5267C39.0188 61.0042 38.9002 61.6011 39.1374 62.3174C39.256 62.5562 39.3746 62.6755 39.4932 62.7949C39.6118 62.9143 39.849 62.9143 39.9676 62.6755L43.0512 59.5716C43.407 59.2135 43.5256 58.6166 43.2884 57.7809C43.1698 57.5421 43.1698 57.4227 42.9326 57.3034C42.814 57.184 42.5768 57.184 42.4582 57.4227L39.3746 60.5267Z" fill="#8338EC"/>
<path d="M69.4986 70.4354C69.8544 70.4354 70.2102 70.6742 70.4474 70.9129C70.6846 71.1517 70.8032 71.5098 70.8032 71.9874C70.8032 72.7036 70.6846 73.4199 70.566 74.0168C70.4474 74.7331 70.2102 75.5688 69.973 76.5239C69.7358 77.4789 69.38 78.3146 68.9056 79.1503C68.4312 79.986 67.8382 80.7022 67.1266 81.4185C66.4151 82.1348 65.4663 82.7317 64.3989 83.0899C63.3315 83.448 62.0269 83.6868 60.6037 83.6868C59.2992 83.6868 58.2318 83.448 57.1644 82.9705C56.2156 82.493 55.3854 81.8961 54.7924 81.1798C54.1994 80.4635 53.725 79.6278 53.3692 78.5534C53.0134 77.5983 52.6576 76.5239 52.539 75.5688C52.4204 74.6138 52.3018 73.5393 52.1833 72.4649C52.1833 71.3904 52.1833 70.4354 52.1833 69.7191C52.3018 69.0028 52.3019 68.2865 52.4204 67.5702C52.4204 67.4508 52.4204 67.3315 52.4204 67.2121C52.4204 67.0927 52.3018 66.9733 52.3018 66.8539C52.3018 66.7345 52.1833 66.8539 52.0647 66.7345C51.9461 66.6152 51.8275 66.6152 51.7089 66.6152C51.2345 66.6152 50.8787 66.6152 50.4043 66.6152C49.6927 66.6152 49.0997 66.6152 48.5067 66.6152C48.1509 66.6152 48.0323 66.4958 47.9137 66.1376C47.7951 65.0632 47.6765 64.1081 47.6765 63.0337C47.6765 62.198 47.7951 61.3624 47.9137 60.5267C48.0323 60.1685 48.1509 60.0491 48.5067 60.0491C49.2183 60.0491 49.8113 60.0491 50.5229 60.0491C51.1159 60.0491 51.7089 60.0491 52.3018 60.0491C52.539 60.0491 52.7762 59.9298 53.0134 59.8104C53.2506 59.691 53.3692 59.4522 53.3692 59.2135C53.8436 55.9902 54.4366 52.6475 55.2668 49.1854C55.3854 48.7079 55.6226 48.3497 56.2156 48.4691L59.5364 48.7079C59.655 48.7079 59.7735 48.8272 59.8921 48.8272C60.0107 48.9466 60.1293 48.9466 60.2479 49.066C60.3665 49.1854 60.3665 49.3048 60.3665 49.4242C60.3665 49.5435 60.3665 49.6629 60.3665 49.7823C60.0107 50.9761 59.6549 52.8862 59.2992 55.3933C59.062 57.184 58.8248 58.4972 58.7062 59.4522C58.7062 59.5716 58.7062 59.8104 58.8248 59.9298C58.9434 60.0492 59.062 60.0491 59.2992 60.0491C59.6549 60.0491 60.3665 60.0491 61.6711 60.0491C63.2129 60.0491 64.0431 60.1685 64.3989 60.1685C64.6361 60.2879 64.7547 60.4073 64.8733 60.6461C64.9919 61.4817 64.9919 62.4368 64.9919 63.2725C64.9919 64.2275 64.9919 65.302 64.8733 66.257C64.8733 66.6152 64.6361 66.7345 64.3989 66.7345C64.0431 66.7345 63.2129 66.8539 61.9083 66.8539C60.6037 66.8539 59.5363 66.8539 58.8248 66.8539C58.469 66.8539 58.3504 66.9733 58.2318 67.2121C58.1132 67.6896 58.1132 68.1671 58.1132 68.764C58.1132 69.3609 57.9946 69.9579 57.9946 70.7935C57.9946 71.6292 57.9946 72.4649 57.9946 73.1812C58.1132 73.8975 58.2318 74.6138 58.3504 75.33C58.469 76.0463 58.8248 76.6432 59.1806 77.0014C59.5364 77.4789 60.1293 77.7177 60.7223 77.8371C61.1967 77.8371 61.6711 77.8371 62.1455 77.8371C62.5013 77.8371 62.9757 77.7177 63.2129 77.4789C63.5687 77.2402 63.8059 77.1208 64.0431 76.882C64.2803 76.6433 64.5175 76.4045 64.6361 75.927C64.8733 75.5688 64.9919 75.2107 65.1105 74.8525C65.2291 74.4944 65.3477 74.1362 65.4663 73.7781C65.5849 73.4199 65.5849 73.0618 65.5849 72.7036C65.5849 72.3455 65.5849 71.9873 65.5849 71.7486C65.5849 71.3904 65.8221 71.0323 66.0593 70.7935C66.2965 70.5548 66.6523 70.4354 67.1266 70.4354H69.4986ZM61.9083 82.0154C62.1455 82.0154 62.2641 81.8961 62.3827 81.5379C62.5013 81.1798 62.5013 80.8216 62.3827 80.4635C62.2641 80.1053 62.1455 79.9859 61.9083 79.9859C60.4851 79.9859 59.1806 79.6278 57.876 79.0309C57.5202 78.7921 57.1644 78.6727 56.8086 78.434C56.5714 78.3146 56.4528 78.1952 56.4528 78.0758C56.097 77.8371 55.8598 77.9565 55.7412 78.5534C55.6226 79.1503 55.6226 79.6278 55.9784 79.8666C57.5202 81.1798 59.5364 81.8961 61.9083 82.0154ZM63.0943 80.7022C63.0943 81.4185 63.2129 81.7767 63.5687 81.7767C63.9245 81.7767 64.0431 81.4185 64.0431 80.7022C64.0431 79.9859 63.9245 79.6278 63.5687 79.6278C63.2129 79.6278 63.0943 79.9859 63.0943 80.7022Z" fill="#8338EC"/>
<path d="M88.7116 48.5885C90.1348 49.066 91.3207 49.7823 92.1509 50.7374C93.0997 51.6924 93.6927 52.6475 94.1671 53.6025C94.5229 54.5576 94.8787 55.632 94.9973 56.8258C95.1159 58.0197 95.1159 58.9747 94.9973 59.8104C94.8787 60.6461 94.7601 61.4817 94.6415 62.3174C94.5229 62.6756 94.2857 63.0337 93.9299 63.2725C93.5741 63.5112 93.2183 63.5112 92.8625 63.3918L90.7278 62.6756C90.372 62.5562 90.1348 62.4368 89.8976 62.0786C89.6604 61.8399 89.6604 61.4817 89.779 61.1236C90.0162 59.2135 89.779 57.6615 89.186 56.4677C88.593 55.5126 87.8814 54.9157 87.0512 54.5576C86.221 54.1994 85.5094 54.08 84.7978 54.1994C80.7655 55.0351 81.9515 59.2135 88.2372 66.6152C89.5418 68.0477 90.6092 69.8385 91.4393 71.9874C92.2695 74.1362 92.3881 76.0463 91.7951 77.7177C91.3207 78.9115 90.7278 79.986 89.8976 80.941C89.0674 81.8961 88 82.6124 86.814 83.0899C85.628 83.6868 84.0862 83.8062 82.4259 83.6868C80.7655 83.5674 78.8679 82.8511 76.9703 81.8961C76.0216 81.4185 75.0728 80.7022 74.3612 79.7472C73.6496 78.7921 73.1752 77.9565 72.8194 76.882C72.4636 75.927 72.2264 74.8525 71.9892 73.7781C71.752 72.7036 71.752 71.7486 71.752 70.9129C71.752 70.0772 71.8706 69.2416 71.8706 68.5253C71.8706 68.1671 72.1078 67.809 72.345 67.5702C72.7008 67.3314 73.0566 67.2121 73.4124 67.3315L76.1402 67.809C76.4959 67.9284 76.7331 68.0477 76.9703 68.2865C77.2075 68.5253 77.3261 68.8834 77.3261 69.2416C77.3261 69.8385 77.3261 70.5548 77.3261 71.1517C77.3261 71.7486 77.4447 72.4649 77.6819 73.3006C77.9191 74.1362 78.1563 74.8525 78.5121 75.4494C78.8679 76.0463 79.3423 76.5239 79.9353 76.882C80.5283 77.2402 81.3585 77.4789 82.1887 77.3595C83.3747 77.2402 84.0862 77.0014 84.6792 76.4045C85.2722 75.8076 85.3908 75.2107 85.2722 74.4944C85.1536 73.7781 84.9164 73.0618 84.6792 72.4649C84.442 71.868 84.0862 71.2711 83.849 70.9129C83.6118 70.5548 82.7817 69.4803 81.2399 67.4508C79.6981 65.4213 78.5121 63.6306 77.5633 62.0786C76.6145 60.5267 76.0216 59.0941 75.903 57.7809C75.6658 56.5871 75.7844 55.3932 76.2588 54.08C76.6146 52.7668 77.3261 51.4536 78.3935 50.2598C79.4609 49.066 80.7655 48.3497 82.5445 47.8722C84.3234 47.6334 86.3396 47.7528 88.7116 48.5885ZM87.407 52.5281C88 52.8862 88.593 53.2444 89.0674 53.6025C89.6604 54.08 90.1348 54.5576 90.4906 55.0351C90.965 55.632 91.2021 56.2289 91.4393 56.8258C91.6765 57.4227 91.9137 57.6615 92.2695 57.3034C92.5067 57.184 92.6253 56.8258 92.6253 56.4677C92.6253 56.1095 92.6253 55.7514 92.5067 55.5126C92.1509 54.3188 91.5579 53.2444 90.6092 52.2893C89.779 51.3343 88.7116 50.4986 87.5256 50.0211C87.1698 49.9017 86.9326 50.1404 86.814 50.7374C86.814 51.573 86.9326 52.1699 87.407 52.5281ZM91.6765 59.5716C91.6765 60.4073 91.9137 60.8848 92.3881 60.8848C92.8625 60.8848 93.0997 60.4073 93.0997 59.5716C93.0997 58.7359 92.8625 58.2584 92.3881 58.2584C91.9137 58.2584 91.6765 58.7359 91.6765 59.5716Z" fill="#8338EC"/>
</g>
<defs>
<clipPath id="clip0_103_413">
<rect width="132" height="85" fill="white"/>
</clipPath>
</defs>
</svg>
