<svg width="88" height="88" viewBox="0 0 88 88" fill="none" xmlns="http://www.w3.org/2000/svg">
<circle cx="44" cy="44" r="44" fill="#8338EC"/>
<path fill-rule="evenodd" clip-rule="evenodd" d="M22 50.4346C22 38.044 32.044 28 44.4346 28C56.8252 28 66.8692 38.044 66.8692 50.4346C66.8692 51.299 66.1685 51.9998 65.304 51.9998C64.4396 51.9998 63.7388 51.299 63.7388 50.4346C63.7388 39.7729 55.0963 31.1304 44.4346 31.1304C33.7729 31.1304 25.1304 39.7729 25.1304 50.4346C25.1304 51.299 24.4296 51.9998 23.5652 51.9998C22.7008 51.9998 22 51.299 22 50.4346Z" fill="white"/>
<path fill-rule="evenodd" clip-rule="evenodd" d="M34.4737 40.4738C37.1155 37.832 40.6986 36.3479 44.4346 36.3479C48.1707 36.3479 51.7537 37.832 54.3955 40.4738C57.0373 43.1156 58.5215 46.6987 58.5215 50.4347C58.5215 51.2992 57.8207 52 56.9563 52C56.0918 52 55.3911 51.2992 55.3911 50.4347C55.3911 47.5289 54.2367 44.7421 52.182 42.6874C50.1273 40.6326 47.3405 39.4783 44.4346 39.4783C41.5288 39.4783 38.742 40.6326 36.6873 42.6874C34.6325 44.7421 33.4782 47.5289 33.4782 50.4347C33.4782 51.2992 32.7774 52 31.913 52C31.0485 52 30.3478 51.2992 30.3478 50.4347C30.3478 46.6987 31.8319 43.1156 34.4737 40.4738Z" fill="white"/>
<path fill-rule="evenodd" clip-rule="evenodd" d="M40.3766 46.3765C41.4528 45.3002 42.9126 44.6956 44.4347 44.6956C45.9568 44.6956 47.4166 45.3002 48.4929 46.3765C49.5691 47.4528 50.1738 48.9125 50.1738 50.4346C50.1738 51.2991 49.473 51.9998 48.6086 51.9998C47.7441 51.9998 47.0434 51.2991 47.0434 50.4346C47.0434 49.7428 46.7685 49.0793 46.2793 48.59C45.7901 48.1008 45.1266 47.826 44.4347 47.826C43.7428 47.826 43.0793 48.1008 42.5901 48.59C42.1009 49.0793 41.826 49.7428 41.826 50.4346C41.826 51.2991 41.1253 51.9998 40.2608 51.9998C39.3964 51.9998 38.6956 51.2991 38.6956 50.4346C38.6956 48.9125 39.3003 47.4528 40.3766 46.3765Z" fill="white"/>
</svg>
