<svg width="88" height="88" viewBox="0 0 88 88" fill="none" xmlns="http://www.w3.org/2000/svg">
<circle cx="44" cy="44" r="44" fill="#8338EC"/>
<path fill-rule="evenodd" clip-rule="evenodd" d="M44.5 25C45.0451 25 45.543 25.3005 45.7842 25.7752L51.3435 36.7142L63.7733 38.4636C64.313 38.5395 64.7615 38.9066 64.9299 39.4104C65.0984 39.9141 64.9576 40.467 64.5668 40.8364L55.5594 49.3509L57.6833 61.3741C57.7755 61.8961 57.5544 62.4237 57.113 62.7348C56.6717 63.0459 56.0867 63.0865 55.6042 62.8396L44.5126 57.1637L33.3946 62.8402C32.9121 63.0866 32.3274 63.0456 31.8864 62.7344C31.4454 62.4232 31.2245 61.8959 31.3167 61.3741L33.4406 49.3509L24.4332 40.8364C24.0424 40.467 23.9016 39.9141 24.0701 39.4104C24.2385 38.9066 24.687 38.5395 25.2267 38.4636L37.6565 36.7142L43.2158 25.7752C43.457 25.3005 43.9549 25 44.5 25ZM44.5 29.5332L39.8916 38.6011C39.6829 39.0117 39.2795 39.2963 38.8128 39.3619L28.5132 40.8115L35.9783 47.8682C36.3164 48.1877 36.4707 48.6484 36.3909 49.0999L34.6303 59.0669L43.8469 54.3611C44.2646 54.1479 44.7636 54.1481 45.181 54.3618L54.3691 59.0636L52.6091 49.0999C52.5293 48.6484 52.6836 48.1877 53.0217 47.8682L60.4868 40.8115L50.1872 39.3619C49.7205 39.2963 49.3171 39.0117 49.1084 38.6011L44.5 29.5332Z" fill="white"/>
</svg>
